# xmcd CD database file
#
# Track frame offsets:
#	150
#	14733
#	30457
#	46074
#	63401
#	79938
#	98091
#	115801
#	130701
#	146367
#	165199
#	180313
#	197636
#	212866
#
# Disc length: 3059 seconds
#
# Revision: 3
# Processed by: cddbd v1.5.2PL0 Copyright (c) Steve Scherf et al.
# Submitted via: CDex 1.70beta2
#
DISCID=b00bf10e
DTITLE=Helene Fischer - So nah wie Du
DYEAR=2007
DGENRE=Schlager
TTITLE0=Fantasie hat Flügel
TTITLE1=Du hast mein Herz berührt
TTITLE2=Mitten im Paradies
TTITLE3=So nah wie Du
TTITLE4=Hinter den Tränen
TTITLE5=Du fängst mich auf und lässt mich fliegen
TTITLE6=Mut zum Gefühl
TTITLE7=Das Karussell in meinem Bauch
TTITLE8=Im Kartenhaus der Träume
TTITLE9=Zwischen Himmel und Erde
TTITLE10=Und ich vermiss' Dich auch
TTITLE11=Schatten im Regenbogenland
TTITLE12=Ich glaub' Dir hundert Lügen
TTITLE13=Wo das Leben tanzt
EXTD=YEAR: 2007
EXTT0=
EXTT1=
EXTT2=
EXTT3=
EXTT4=
EXTT5=
EXTT6=
EXTT7=
EXTT8=
EXTT9=
EXTT10=
EXTT11=
EXTT12=
EXTT13=
PLAYORDER=
